<svg width="24" height="25" viewBox="0 0 24 25" fill="none" 
    xmlns="http://www.w3.org/2000/svg">
    <linearGradient id="whatsapp_linear" x1="1" y1="1" x2="0.999999" y2="24.5" gradientUnits="userSpaceOnUse">
        <stop stop-color="#5DFA79"/>
        <stop offset="1" stop-color="#28D146"/>
    </linearGradient>
    <path d="M0 4.76632C0 2.55718 1.79086 0.766319 4 0.766319H20C22.2091 0.766319 24 2.55718 24 4.76632V20.7663C24 22.9755 22.2091 24.7663 20 24.7663H4C1.79086 24.7663 0 22.9755 0 20.7663V4.76632Z" fill="url(#whatsapp_linear)"/>
    <path d="M16.1302 14.7302L16.1235 14.7865C14.4742 13.9645 14.3017 13.855 14.0887 14.1745C13.941 14.3957 13.5105 14.8975 13.3807 15.046C13.2495 15.1922 13.119 15.2035 12.8962 15.1022C12.6712 14.9897 11.949 14.7535 11.094 13.9885C10.428 13.3922 9.98098 12.661 9.84898 12.436C9.62923 12.0565 10.089 12.0025 10.5075 11.2105C10.5825 11.053 10.5442 10.9292 10.4887 10.8175C10.4325 10.705 9.98473 9.6025 9.79723 9.163C9.61723 8.725 9.43198 8.7805 9.29323 8.7805C8.86123 8.743 8.54548 8.749 8.26723 9.0385C7.05673 10.369 7.36198 11.7415 8.39773 13.201C10.4332 15.865 11.5177 16.3555 13.5007 17.0365C14.0362 17.2067 14.5245 17.1827 14.9107 17.1272C15.3412 17.059 16.236 16.5865 16.4227 16.0577C16.614 15.529 16.614 15.0902 16.5577 14.989C16.5022 14.8877 16.3552 14.8315 16.1302 14.7302V14.7302Z" fill="white"/>
    <path d="M18.39 6.58664C12.6233 1.01189 3.0795 5.05514 3.07575 12.9196C3.07575 14.4916 3.4875 16.0246 4.272 17.3784L3 21.9999L7.75125 20.7609C13.68 23.9634 20.997 19.7109 21 12.9241C21 10.5421 20.07 8.30039 18.3787 6.61589L18.39 6.58664ZM19.5015 12.8994C19.497 18.6241 13.2127 22.1994 8.2425 19.2774L7.9725 19.1169L5.16 19.8481L5.91375 17.1144L5.7345 16.8331C2.6415 11.9094 6.195 5.47439 12.054 5.47439C14.0445 5.47439 15.9128 6.25064 17.3198 7.65689C18.726 9.05114 19.5015 10.9194 19.5015 12.8994V12.8994Z" fill="white"/>
</svg>
