<svg width="24" height="24" viewBox="0 0 24 24" 
    xmlns="http://www.w3.org/2000/svg" fill="none">
    <path d="M23.842 20.553c0 1.817-1.472 3.289-3.289 3.289h-17.105c-1.816 0-3.289-1.472-3.289-3.289v-17.105c0-1.817 1.473-3.289 3.289-3.289h17.105c1.817 0 3.289 1.472 3.289 3.289v17.105z" fill="#0288D1"/>
    <path d="M17.193 12.416c-.484-.528-1.132-.876-1.939-1.047l-.449-.069c.562-.237 1.001-.605 1.32-1.108.32-.501.48-1.071.48-1.714 0-3.057-4.011-3.057-4.97-3.057h-4.241v13.158h5.302c.909 0 1.653-.084 2.241-.247.59-.166 1.132-.443 1.624-.83.415-.326.746-.733.99-1.228.247-.495.37-1.071.37-1.725 0-.894-.243-1.605-.728-2.133zm-6.509-4.364h1.199s1.435-.041 1.435 1.316-1.393 1.316-1.393 1.316h-1.24v-2.632zm1.945 7.895c-.326.014-.915.005-1.768.005h-.177v-3.295h2.002c.348.009 1.945-.053 1.945 1.618s-1.676 1.659-2.002 1.671z" fill="#fff"/>
</svg>