<svg width="25" height="26" viewBox="0 0 25 26" fill="none" 
    xmlns="http://www.w3.org/2000/svg">
    <linearGradient id="instagram_linear" x1="2.54604" y1="23.4671" x2="24.8515" y2="4.162" gradientUnits="userSpaceOnUse">
        <stop stop-color="#FFDD55"/>
        <stop offset="0.5" stop-color="#FF543E"/>
        <stop offset="1" stop-color="#C837AB"/>
    </linearGradient>
    <path id="instagramVector" d="M2.50002 2.633C0.614016 4.592 1.00002 6.673 1.00002 12.995C1.00002 18.245 0.0840161 23.508 4.87802 24.747C6.37502 25.132 19.639 25.132 21.134 24.745C23.13 24.23 24.754 22.611 24.976 19.788C25.007 19.394 25.007 6.603 24.975 6.201C24.739 3.194 22.888 1.46099 20.449 1.10999C19.89 1.02899 19.778 1.00499 16.91 0.999993C6.73702 1.00499 4.50702 0.551992 2.50002 2.633Z" fill="url(#instagram_linear)"/>
    <path id="instagramVector_2" d="M12.998 4.13898C9.367 4.13898 5.919 3.81598 4.602 7.19598C4.058 8.59198 4.137 10.405 4.137 13.001C4.137 15.279 4.064 17.42 4.602 18.805C5.916 22.187 9.392 21.863 12.996 21.863C16.473 21.863 20.058 22.225 21.391 18.805C21.936 17.395 21.856 15.609 21.856 13.001C21.856 9.53899 22.047 7.30398 20.368 5.62598C18.668 3.92598 16.369 4.13898 12.994 4.13898H12.998ZM12.204 5.73598C19.778 5.72398 20.742 4.88199 20.21 16.579C20.021 20.716 16.871 20.262 12.999 20.262C5.939 20.262 5.736 20.06 5.736 12.997C5.736 5.85198 6.296 5.73998 12.204 5.73398V5.73598ZM17.728 7.20698C17.141 7.20698 16.665 7.68298 16.665 8.26998C16.665 8.85698 17.141 9.33298 17.728 9.33298C18.315 9.33298 18.791 8.85698 18.791 8.26998C18.791 7.68298 18.315 7.20698 17.728 7.20698ZM12.998 8.44998C10.485 8.44998 8.448 10.488 8.448 13.001C8.448 15.514 10.485 17.551 12.998 17.551C15.511 17.551 17.547 15.514 17.547 13.001C17.547 10.488 15.511 8.44998 12.998 8.44998ZM12.998 10.047C16.903 10.047 16.908 15.955 12.998 15.955C9.094 15.955 9.088 10.047 12.998 10.047Z" fill="white"/>
</svg>
