<svg width="1024" height="1198" viewBox="0 0 1024 1198" 
    xmlns="http://www.w3.org/2000/svg" fill="none">
    <path d="M759.38 298.479c-92.754-16.68-155.826 47.972-237.45 47.972h-25.97c-77.914 0-144.696-64.652-237.45-47.972-178.365 32.076-232.831 134.861-256 313.664-21.039 162.367 92.754 453.887 244.87 564.597 81.128 59.04 152.116-25.83 248.58-25.83h25.97c96.464 0 167.452 84.87 248.58 25.83 152.116-110.71 265.91-402.23 244.87-564.597-23.169-178.803-77.635-281.588-256-313.664z" fill="#F2F2F2"/>
    <path fill-rule="evenodd" clip-rule="evenodd" d="M486.433 312.693c125.782-5.984 225.914-109.31 225.914-235.897 0-15.039-1.414-29.75-4.115-44.009-125.782 5.984-225.914 109.31-225.914 235.897 0 15.04 1.413 29.75 4.115 44.009z" fill="#F2F2F2"/>
</svg>