<svg width="1024" height="1198" viewBox="0 0 1024 1198" fill="none" xmlns="http://www.w3.org/2000/svg">
<path d="M759.38 298.479C666.626 281.799 603.554 346.451 521.93 346.451L495.96 346.451C418.046 346.451 351.264 281.799 258.51 298.479C80.1445 330.555 25.6788 433.34 2.51006 612.143C-18.529 774.51 95.2638 1066.03 247.38 1176.74C328.508 1235.78 399.496 1150.91 495.96 1150.91H521.93C618.394 1150.91 689.382 1235.78 770.51 1176.74C922.626 1066.03 1036.42 774.51 1015.38 612.143C992.211 433.34 937.745 330.555 759.38 298.479Z" fill="#F2F2F2"/>
<path fill-rule="evenodd" clip-rule="evenodd" d="M486.433 312.693C612.215 306.709 712.347 203.383 712.347 76.7962C712.347 61.7569 710.933 47.0459 708.232 32.7875C582.45 38.7718 482.318 142.097 482.318 268.684C482.318 283.724 483.731 298.434 486.433 312.693Z" fill="#F2F2F2"/>
</svg>
