<svg width="56" height="80" viewBox="0 0 56 80" 
    xmlns="http://www.w3.org/2000/svg" fill="none">
    <g clip-path="url(#a)">
        <path fill-rule="evenodd" clip-rule="evenodd" d="M5.773.102c-3.188 0-5.773 2.585-5.773 5.773v66.553c0 3.188 2.585 5.773 5.773 5.773h25.851c3.188 0 5.773-2.585 5.773-5.773v-66.553c0-3.188-2.585-5.773-5.773-5.773h-25.851zm-.245 1.59c-2.126 0-3.849 1.723-3.849 3.849v5.908c0 2.126 1.723 3.849 3.849 3.849h5.918c2.126 0 3.849-1.723 3.849-3.849v-5.908c0-2.126-1.723-3.849-3.849-3.849h-5.918z" fill="#3F3F3F"/>
        <circle cx="5.773" cy="11.45" r="2.405" fill="#3F3F3F"/>
        <circle cx="5.773" cy="5.1" r="2.405" fill="#3F3F3F"/>
        <circle cx="11.546" cy="8.179" r="2.405" fill="#3F3F3F"/>
        <circle cx="11.546" cy="3.945" r="1.155" fill="#BDBDBD"/>
        <circle r=".289" transform="matrix(-1 0 0 1 11.546 12.701)" fill="#BDBDBD"/>
        <path d="M24.516 6.047c-3.614 0-6.543 2.929-6.543 6.543v59.839c0 3.613 2.929 6.543 6.543 6.543h24.171c3.614 0 6.543-2.929 6.543-6.543v-59.839c0-3.614-2.929-6.543-6.543-6.543h-24.171z" fill="#3F3F3F" stroke="#FBFBFD" stroke-width="1.54"/>
        <circle cx="25.979" cy="11.835" r="2.021" fill="#3F3F3F" stroke="#FBFBFD" stroke-width=".577"/>
    </g>
    <defs>
        <clipPath id="a">
            <path d="M0 0h56v79.766h-56v-79.766z" fill="#fff"/>
        </clipPath>
    </defs>
</svg>