<svg width="25" height="24" viewBox="0 0 25 24" fill="none" xmlns="http://www.w3.org/2000/svg">
<mask id="path-2-outside-1" maskUnits="userSpaceOnUse" x="0" y="-1" width="26" height="27" fill="black">
<rect fill="white" y="-1" width="26" height="27"/>
<path fill-rule="evenodd" clip-rule="evenodd" d="M1 11.9999C1 5.38264 6.38113 0 12.9965 0V0.000199099H13.0035C19.6189 0.000199099 25 5.38284 25 12.0001C25 18.6172 19.6189 24 13.0035 24C10.5632 24 8.2993 23.2735 6.40222 22.0178L1.7898 23.4919L3.28501 19.0335C1.84633 17.058 1 14.6242 1 11.9999ZM8.88488 5.50271C9.23738 5.51704 9.41373 5.53815 9.64642 6.09542C9.72157 6.27688 9.82483 6.52744 9.93799 6.80203C10.2602 7.58403 10.6628 8.56092 10.7254 8.69148C10.81 8.86788 10.8948 9.10779 10.7748 9.34054C10.6698 9.56373 10.577 9.67096 10.4226 9.84944C10.4111 9.86282 10.3991 9.87659 10.3869 9.89085C10.3114 9.97844 10.2372 10.057 10.1633 10.1353C10.0644 10.2399 9.96585 10.3443 9.86496 10.4694C9.86214 10.4727 9.85931 10.4761 9.85648 10.4794C9.69667 10.667 9.52299 10.8708 9.72404 11.2172C9.92846 11.5629 10.6337 12.7127 11.6705 13.6367C12.901 14.7313 13.9172 15.1423 14.3755 15.3277C14.4164 15.3443 14.4528 15.359 14.4846 15.3722C14.7736 15.4923 15.1193 15.464 15.3309 15.2383C15.5602 14.991 15.8359 14.6041 16.1227 14.2015C16.1712 14.1335 16.22 14.065 16.269 13.9967C16.5086 13.658 16.8118 13.6156 17.1292 13.7355C17.4537 13.8483 19.1676 14.6949 19.5201 14.8713C19.5921 14.9074 19.6591 14.9396 19.7209 14.9693C19.9616 15.0851 20.1228 15.1626 20.1901 15.2805C20.2749 15.4286 20.2749 16.127 19.9857 16.9455C19.6965 17.7636 18.5468 18.4412 17.63 18.6387C17.0024 18.7727 16.1842 18.8786 13.4266 17.7358C10.1605 16.3829 7.97114 13.2085 7.52583 12.5628C7.49037 12.5114 7.46597 12.476 7.45296 12.4588C7.448 12.452 7.44211 12.4439 7.43535 12.4347C7.21129 12.1283 6.02841 10.5106 6.02841 8.83961C6.02841 7.16647 6.85464 6.32657 7.22465 5.95043C7.23533 5.93958 7.24563 5.92911 7.25551 5.91902C7.54472 5.62276 8.02422 5.48877 8.48281 5.48877C8.6311 5.48877 8.76485 5.49574 8.88488 5.50271Z"/>
</mask>
<path fill-rule="evenodd" clip-rule="evenodd" d="M1 11.9999C1 5.38264 6.38113 0 12.9965 0V0.000199099H13.0035C19.6189 0.000199099 25 5.38284 25 12.0001C25 18.6172 19.6189 24 13.0035 24C10.5632 24 8.2993 23.2735 6.40222 22.0178L1.7898 23.4919L3.28501 19.0335C1.84633 17.058 1 14.6242 1 11.9999ZM8.88488 5.50271C9.23738 5.51704 9.41373 5.53815 9.64642 6.09542C9.72157 6.27688 9.82483 6.52744 9.93799 6.80203C10.2602 7.58403 10.6628 8.56092 10.7254 8.69148C10.81 8.86788 10.8948 9.10779 10.7748 9.34054C10.6698 9.56373 10.577 9.67096 10.4226 9.84944C10.4111 9.86282 10.3991 9.87659 10.3869 9.89085C10.3114 9.97844 10.2372 10.057 10.1633 10.1353C10.0644 10.2399 9.96585 10.3443 9.86496 10.4694C9.86214 10.4727 9.85931 10.4761 9.85648 10.4794C9.69667 10.667 9.52299 10.8708 9.72404 11.2172C9.92846 11.5629 10.6337 12.7127 11.6705 13.6367C12.901 14.7313 13.9172 15.1423 14.3755 15.3277C14.4164 15.3443 14.4528 15.359 14.4846 15.3722C14.7736 15.4923 15.1193 15.464 15.3309 15.2383C15.5602 14.991 15.8359 14.6041 16.1227 14.2015C16.1712 14.1335 16.22 14.065 16.269 13.9967C16.5086 13.658 16.8118 13.6156 17.1292 13.7355C17.4537 13.8483 19.1676 14.6949 19.5201 14.8713C19.5921 14.9074 19.6591 14.9396 19.7209 14.9693C19.9616 15.0851 20.1228 15.1626 20.1901 15.2805C20.2749 15.4286 20.2749 16.127 19.9857 16.9455C19.6965 17.7636 18.5468 18.4412 17.63 18.6387C17.0024 18.7727 16.1842 18.8786 13.4266 17.7358C10.1605 16.3829 7.97114 13.2085 7.52583 12.5628C7.49037 12.5114 7.46597 12.476 7.45296 12.4588C7.448 12.452 7.44211 12.4439 7.43535 12.4347C7.21129 12.1283 6.02841 10.5106 6.02841 8.83961C6.02841 7.16647 6.85464 6.32657 7.22465 5.95043C7.23533 5.93958 7.24563 5.92911 7.25551 5.91902C7.54472 5.62276 8.02422 5.48877 8.48281 5.48877C8.6311 5.48877 8.76485 5.49574 8.88488 5.50271Z" fill="#67C15E"/>
<path d="M12.9965 0H13.9965V-1H12.9965V0ZM12.9965 0.000199099H11.9965V1.0002H12.9965V0.000199099ZM6.40222 22.0178L6.95418 21.1839L6.55443 20.9193L6.09779 21.0652L6.40222 22.0178ZM1.7898 23.4919L0.841699 23.1739L0.214096 25.0453L2.09423 24.4444L1.7898 23.4919ZM3.28501 19.0335L4.23312 19.3514L4.39725 18.862L4.09336 18.4448L3.28501 19.0335ZM9.64642 6.09542L10.5703 5.71275L10.5692 5.71013L9.64642 6.09542ZM8.88488 5.50271L8.82692 6.50103L8.83558 6.50153L8.84424 6.50188L8.88488 5.50271ZM9.93799 6.80203L10.8626 6.42101L10.8626 6.42101L9.93799 6.80203ZM10.7254 8.69148L11.6271 8.25908L11.6271 8.25907L10.7254 8.69148ZM10.7748 9.34054L9.88601 8.88221L9.87766 8.8984L9.86991 8.91488L10.7748 9.34054ZM10.4226 9.84944L9.66635 9.1952L9.66634 9.19522L10.4226 9.84944ZM10.3869 9.89085L9.62959 9.23774L9.62928 9.2381L10.3869 9.89085ZM10.1633 10.1353L10.8902 10.8219L10.8902 10.8219L10.1633 10.1353ZM9.86496 10.4694L10.6264 11.1177L10.6351 11.1074L10.6436 11.097L9.86496 10.4694ZM9.85648 10.4794L9.09531 9.83083L9.09531 9.83084L9.85648 10.4794ZM9.72404 11.2172L8.85909 11.7192L8.86331 11.7263L9.72404 11.2172ZM11.6705 13.6367L11.0052 14.3832L11.0058 14.3838L11.6705 13.6367ZM14.3755 15.3277L14.0006 16.2548L14.0006 16.2548L14.3755 15.3277ZM14.4846 15.3722L14.0991 16.295L14.1009 16.2957L14.4846 15.3722ZM15.3309 15.2383L16.0606 15.9221L16.0641 15.9183L15.3309 15.2383ZM16.1227 14.2015L16.9371 14.7819L16.9371 14.7819L16.1227 14.2015ZM16.269 13.9967L17.0819 14.579L17.0853 14.5743L16.269 13.9967ZM17.1292 13.7355L16.776 14.671L16.7883 14.6756L16.8006 14.6799L17.1292 13.7355ZM19.5201 14.8713L19.9681 13.9772L19.9677 13.977L19.5201 14.8713ZM19.7209 14.9693L19.2875 15.8705L19.2875 15.8705L19.7209 14.9693ZM20.1901 15.2805L19.3217 15.7764L19.3222 15.7773L20.1901 15.2805ZM19.9857 16.9455L20.9285 17.2788L20.9286 17.2787L19.9857 16.9455ZM17.63 18.6387L17.8388 19.6166L17.8406 19.6162L17.63 18.6387ZM13.4266 17.7358L13.8095 16.8119L13.8093 16.8119L13.4266 17.7358ZM7.52583 12.5628L8.34903 11.995L8.34903 11.995L7.52583 12.5628ZM7.45296 12.4588L6.64384 13.0465L6.64992 13.0548L6.65616 13.0631L7.45296 12.4588ZM7.43535 12.4347L8.24257 11.8445H8.24257L7.43535 12.4347ZM7.22465 5.95043L7.93754 6.65171L7.93755 6.6517L7.22465 5.95043ZM7.25551 5.91902L7.96979 6.61889L7.97108 6.61756L7.25551 5.91902ZM12.9965 -1C5.82858 -1 0 4.83063 0 11.9999H2C2 5.93466 6.93368 1 12.9965 1V-1ZM13.9965 0.000199099V0H11.9965V0.000199099H13.9965ZM13.0035 -0.999801H12.9965V1.0002H13.0035V-0.999801ZM26 12.0001C26 4.83082 20.1714 -0.999801 13.0035 -0.999801V1.0002C19.0663 1.0002 24 5.93486 24 12.0001H26ZM13.0035 25C20.1714 25 26 19.1692 26 12.0001H24C24 18.0651 19.0663 23 13.0035 23V25ZM5.85027 22.8516C7.90614 24.2125 10.3611 25 13.0035 25V23C10.7653 23 8.69246 22.3345 6.95418 21.1839L5.85027 22.8516ZM2.09423 24.4444L6.70665 22.9703L6.09779 21.0652L1.48537 22.5394L2.09423 24.4444ZM2.33691 18.7155L0.841699 23.1739L2.73791 23.8099L4.23312 19.3514L2.33691 18.7155ZM0 11.9999C0 14.8423 0.917338 17.4811 2.47666 19.6222L4.09336 18.4448C2.77532 16.635 2 14.4061 2 11.9999H0ZM10.5692 5.71013C10.4357 5.3903 10.2376 5.00701 9.8582 4.75873C9.47512 4.50802 9.06109 4.50905 8.92551 4.50353L8.84424 6.50188C8.88736 6.50363 8.91263 6.50494 8.93164 6.50642C8.94972 6.50782 8.95026 6.50856 8.94067 6.50681C8.92995 6.50486 8.90498 6.49956 8.87167 6.48721C8.83715 6.4744 8.79981 6.45631 8.76296 6.43219C8.68658 6.3822 8.65255 6.33299 8.65178 6.33186C8.65177 6.33183 8.65224 6.33252 8.65317 6.334C8.6541 6.33549 8.65547 6.33771 8.65725 6.34074C8.66085 6.34688 8.66589 6.35592 8.67232 6.3684C8.6854 6.3938 8.7025 6.43013 8.72362 6.48072L10.5692 5.71013ZM10.8626 6.42101C10.7495 6.14678 10.6459 5.89524 10.5703 5.71275L8.72253 6.47809C8.79727 6.65853 8.90012 6.90811 9.01342 7.18304L10.8626 6.42101ZM11.6271 8.25907C11.6288 8.26254 11.6228 8.24974 11.6046 8.20769C11.5886 8.17085 11.5678 8.12198 11.5425 8.06216C11.4921 7.94277 11.4268 7.78616 11.3526 7.60761C11.2045 7.25078 11.0238 6.81237 10.8626 6.42101L9.01342 7.18304C9.32399 7.93667 9.74498 8.95964 9.82375 9.12388L11.6271 8.25907ZM11.6636 9.79887C12.0204 9.10701 11.7245 8.4621 11.6271 8.25908L9.82374 9.12387C9.83533 9.14803 9.84055 9.16127 9.84267 9.16728C9.8448 9.1733 9.84114 9.1647 9.83804 9.1441C9.8348 9.12263 9.83166 9.08479 9.83811 9.03565C9.84481 8.98456 9.86061 8.93146 9.88601 8.88221L11.6636 9.79887ZM11.1789 10.5037C11.3423 10.3148 11.5128 10.121 11.6797 9.7662L9.86991 8.91488C9.84191 8.97441 9.82337 9.00299 9.80652 9.02633C9.78135 9.06118 9.74995 9.09857 9.66635 9.1952L11.1789 10.5037ZM11.1441 10.544C11.1559 10.5304 11.1673 10.5171 11.1789 10.5037L9.66634 9.19522C9.65485 9.2085 9.64245 9.22283 9.62959 9.23774L11.1441 10.544ZM10.8902 10.8219C10.9624 10.7455 11.0518 10.6511 11.1444 10.5436L9.62928 9.2381C9.57094 9.30581 9.51205 9.36839 9.43628 9.4486L10.8902 10.8219ZM10.6436 11.097C10.7164 11.0065 10.7891 10.9289 10.8902 10.8219L9.43628 9.4486C9.33962 9.55094 9.21526 9.68198 9.08636 9.84191L10.6436 11.097ZM10.6176 11.128C10.6204 11.1247 10.6234 11.1212 10.6264 11.1177L9.10352 9.82121C9.10086 9.82432 9.09818 9.82747 9.09531 9.83083L10.6176 11.128ZM10.589 10.7153C10.5915 10.7197 10.6174 10.7663 10.6286 10.8492C10.6404 10.9373 10.6298 11.0245 10.606 11.0979C10.5951 11.1313 10.5832 11.1567 10.5744 11.1731C10.5659 11.1892 10.5597 11.198 10.5594 11.1984C10.5593 11.1986 10.5627 11.1937 10.573 11.1811C10.5839 11.1676 10.5964 11.1529 10.6176 11.1279L9.09531 9.83084C9.04147 9.89403 8.81412 10.1406 8.70392 10.4796C8.56571 10.9048 8.6368 11.336 8.85912 11.7192L10.589 10.7153ZM12.3358 12.8902C11.4179 12.0721 10.7761 11.0317 10.5848 10.7082L8.86331 11.7263C9.08081 12.0941 9.84942 13.3532 11.0052 14.3832L12.3358 12.8902ZM14.7505 14.4007C14.34 14.2347 13.4432 13.8752 12.3351 12.8896L11.0058 14.3838C12.3588 15.5874 13.4943 16.05 14.0006 16.2548L14.7505 14.4007ZM14.87 14.4495C14.8319 14.4336 14.7898 14.4166 14.7505 14.4007L14.0006 16.2548C14.043 16.2719 14.0737 16.2843 14.0991 16.295L14.87 14.4495ZM14.6012 14.5545C14.6738 14.477 14.7562 14.4503 14.8019 14.4441C14.8421 14.4386 14.862 14.4462 14.8682 14.4488L14.1009 16.2957C14.6535 16.5253 15.4837 16.5376 16.0606 15.922L14.6012 14.5545ZM15.3083 13.6212C15.0057 14.0459 14.7728 14.3694 14.5977 14.5583L16.0641 15.9183C16.3477 15.6125 16.666 15.1623 16.9371 14.7819L15.3083 13.6212ZM15.456 13.4143C15.4062 13.4839 15.3567 13.5534 15.3083 13.6212L16.9371 14.7819C16.9857 14.7136 17.0338 14.6462 17.0819 14.579L15.456 13.4143ZM17.4824 12.7999C17.1939 12.691 16.8205 12.6213 16.4174 12.7265C16.001 12.8352 15.6805 13.097 15.4527 13.419L17.0853 14.5743C17.0936 14.5625 17.0857 14.5769 17.0554 14.5995C17.0231 14.6234 16.9775 14.6473 16.9224 14.6617C16.8102 14.691 16.7471 14.6601 16.776 14.671L17.4824 12.7999ZM19.9677 13.977C19.7875 13.8869 19.2667 13.6291 18.749 13.3791C18.2681 13.1468 17.6896 12.8716 17.4579 12.791L16.8006 14.6799C16.7972 14.6787 16.8047 14.6813 16.8275 14.6906C16.8485 14.6992 16.8761 14.7109 16.9107 14.726C16.9801 14.7562 17.0678 14.7959 17.1702 14.8433C17.3748 14.938 17.6248 15.0572 17.8793 15.1801C18.3878 15.4257 18.9002 15.6793 19.0726 15.7656L19.9677 13.977ZM20.1543 14.0681C20.0919 14.0381 20.0318 14.0092 19.9681 13.9772L19.0722 15.7654C19.1524 15.8056 19.2264 15.8411 19.2875 15.8705L20.1543 14.0681ZM21.0585 14.7846C20.9024 14.5112 20.6785 14.355 20.5453 14.2729C20.4123 14.1909 20.2583 14.1181 20.1543 14.0681L19.2875 15.8705C19.3501 15.9006 19.3951 15.9223 19.4336 15.9419C19.472 15.9614 19.4896 15.9715 19.4957 15.9753C19.5022 15.9793 19.4822 15.9678 19.4512 15.9398C19.4182 15.91 19.3676 15.8567 19.3217 15.7764L21.0585 14.7846ZM20.9286 17.2787C21.1018 16.7884 21.1917 16.326 21.2244 15.9478C21.2407 15.7596 21.2441 15.5777 21.2318 15.4135C21.2235 15.3014 21.1997 15.0312 21.058 14.7837L19.3222 15.7773C19.2597 15.6679 19.2422 15.5817 19.2402 15.5726C19.2354 15.5504 19.2361 15.5452 19.2374 15.5625C19.2399 15.5965 19.2412 15.6682 19.2319 15.7754C19.2135 15.9881 19.1588 16.2842 19.0428 16.6124L20.9286 17.2787ZM17.8406 19.6162C18.4292 19.4895 19.0638 19.2181 19.6034 18.8532C20.125 18.5004 20.6824 17.9751 20.9285 17.2788L19.0429 16.6122C18.9998 16.7341 18.8377 16.9566 18.483 17.1965C18.1463 17.4242 17.7477 17.5904 17.4194 17.6611L17.8406 19.6162ZM13.0438 18.6596C14.4553 19.2446 15.4316 19.5364 16.1703 19.6537C16.9518 19.7777 17.4416 19.7014 17.8388 19.6166L17.4212 17.6607C17.1908 17.7099 16.9578 17.7536 16.4838 17.6784C15.9671 17.5964 15.1555 17.3698 13.8095 16.8119L13.0438 18.6596ZM6.70262 13.1305C7.14236 13.7681 9.47631 17.1819 13.044 18.6596L13.8093 16.8119C10.8446 15.5839 8.79991 12.6488 8.34903 11.995L6.70262 13.1305ZM6.65616 13.0631C6.65137 13.0568 6.64925 13.0537 6.6514 13.0567C6.65306 13.059 6.65608 13.0633 6.66102 13.0704C6.67118 13.0849 6.6843 13.104 6.70262 13.1305L8.34903 11.995C8.32254 11.9566 8.28034 11.8949 8.24976 11.8546L6.65616 13.0631ZM6.62813 13.0249C6.63521 13.0346 6.64004 13.0412 6.64384 13.0465L8.26208 11.8712C8.25597 11.8628 8.24902 11.8533 8.24257 11.8445L6.62813 13.0249ZM5.02841 8.83961C5.02841 9.89467 5.39639 10.8774 5.75229 11.5938C6.1146 12.323 6.50671 12.8589 6.62813 13.0249L8.24257 11.8445C8.13993 11.7041 7.82857 11.2779 7.54342 10.7039C7.25187 10.1171 7.02841 9.45552 7.02841 8.83961H5.02841ZM6.51177 5.24915C6.0815 5.68654 5.02841 6.76893 5.02841 8.83961H7.02841C7.02841 7.56402 7.62778 6.96659 7.93754 6.65171L6.51177 5.24915ZM6.54123 5.21916C6.53217 5.22841 6.52259 5.23815 6.51176 5.24916L7.93755 6.6517C7.94807 6.64101 7.95908 6.62981 7.96979 6.61889L6.54123 5.21916ZM8.48281 4.48877C7.88047 4.48877 7.08997 4.65704 6.53994 5.22048L7.97108 6.61756C7.99947 6.58848 8.16796 6.48877 8.48281 6.48877V4.48877ZM8.94284 4.50439C8.81912 4.4972 8.66147 4.48877 8.48281 4.48877V6.48877C8.60073 6.48877 8.71058 6.49427 8.82692 6.50103L8.94284 4.50439Z" fill="white" mask="url(#path-2-outside-1)"/>
</svg>
