<svg width="54" height="80" viewBox="0 0 54 80" fill="none" xmlns="http://www.w3.org/2000/svg">
<path d="M40.0454 22.9454C35.1541 22.0543 31.828 25.5082 27.5237 25.5082L26.1541 25.5082C22.0454 25.5082 18.5237 22.0543 13.6324 22.9454C4.22637 24.659 1.35415 30.1501 0.132366 39.7021C-0.977116 48.3762 5.02367 63.95 13.0454 69.8641C17.3237 73.0183 21.0672 68.4842 26.1541 68.4842H27.5237C32.6106 68.4842 36.3541 73.0183 40.6324 69.8641C48.6541 63.95 54.6549 48.3762 53.5454 39.7021C52.3236 30.1501 49.4514 24.659 40.0454 22.9454Z" fill="#3F3F3F"/>
<path fill-rule="evenodd" clip-rule="evenodd" d="M25.6516 23.7048C32.2846 23.3851 37.565 17.8652 37.565 11.1026C37.565 10.2992 37.4905 9.5133 37.348 8.75159C30.715 9.07128 25.4346 14.5912 25.4346 21.3537C25.4346 22.1572 25.5091 22.9431 25.6516 23.7048Z" fill="#3F3F3F"/>
</svg>
