<svg width="1280" height="559" viewBox="0 0 1280 559" fill="none" xmlns="http://www.w3.org/2000/svg">
<g clip-path="url(#clip0)">
<g clip-path="url(#clip1)">
<path d="M978.316 371.271C852.591 347.963 767.098 438.307 656.46 438.307L621.258 438.307C515.649 438.307 425.127 347.963 299.402 371.271C57.6333 416.094 -16.1932 559.724 -47.5977 809.579C-76.1155 1036.47 78.127 1443.84 284.315 1598.53C394.283 1681.04 490.504 1562.44 621.258 1562.44H656.46C787.214 1562.44 883.435 1681.04 993.402 1598.53C1199.59 1443.84 1353.83 1036.47 1325.32 809.579C1293.91 559.724 1220.08 416.094 978.316 371.271Z" fill="#F2F2F2"/>
<path fill-rule="evenodd" clip-rule="evenodd" d="M608.345 391.134C778.838 382.772 914.563 238.387 914.563 61.4968C914.563 40.4812 912.648 19.9244 908.986 0C738.492 8.36242 602.767 152.748 602.767 329.637C602.767 350.653 604.682 371.21 608.345 391.134Z" fill="#F2F2F2"/>
</g>
</g>
<defs>
<clipPath id="clip0">
<rect width="1280" height="558.952" fill="white"/>
</clipPath>
<clipPath id="clip1">
<path d="M-51 0H1337V1674.06H-51V0Z" fill="white"/>
</clipPath>
</defs>
</svg>
