<svg width="54" height="80" viewBox="0 0 54 80" 
    xmlns="http://www.w3.org/2000/svg" fill="none">
    <path d="M40.045 22.945c-4.891-.891-8.217 2.563-12.522 2.563h-1.37c-4.109 0-7.63-3.454-12.522-2.563-9.406 1.714-12.278 7.205-13.5 16.757-1.109 8.674 4.891 24.248 12.913 30.162 4.278 3.154 8.022-1.38 13.109-1.38h1.37c5.087 0 8.83 4.534 13.109 1.38 8.022-5.914 14.023-21.488 12.913-30.162-1.222-9.552-4.094-15.043-13.5-16.757z" fill="#3F3F3F"/>
    <path fill-rule="evenodd" clip-rule="evenodd" d="M25.652 23.705c6.633-.32 11.913-5.84 11.913-12.602 0-.803-.075-1.589-.217-2.351-6.633.32-11.913 5.84-11.913 12.602 0 .803.075 1.589.217 2.351z" fill="#3F3F3F"/>
</svg>