<svg width="138" height="38" viewBox="0 0 138 38" 
    xmlns="http://www.w3.org/2000/svg" fill="none">
    <path d="M5.888 37h-5.508v-25.922h5.508v25.922zm-5.836-32.789c0-.984.266-1.742.797-2.273.547-.531 1.32-.797 2.32-.797.969 0 1.719.266 2.25.797.547.531.82 1.289.82 2.273 0 .938-.273 1.68-.82 2.227-.531.531-1.281.797-2.25.797-1 0-1.773-.266-2.32-.797-.531-.547-.797-1.289-.797-2.227zm31.728 8.883c0 3.578-1.172 6.32-3.516 8.226-2.344 1.906-5.68 2.859-10.008 2.859h-3.563v12.82h-5.602v-34.266h9.867c4.281 0 7.484.875 9.609 2.625 2.141 1.75 3.211 4.328 3.211 7.734zm-17.086 6.375h2.977c2.875 0 4.984-.5 6.328-1.5 1.344-1 2.016-2.563 2.016-4.688 0-1.969-.602-3.437-1.805-4.406-1.203-.969-3.078-1.453-5.625-1.453h-3.891v12.047zm43.029 17.531h-5.531v-15.938c0-2-.406-3.492-1.219-4.477-.797-.984-2.07-1.476-3.82-1.476-2.313 0-4.016.695-5.109 2.086-1.078 1.375-1.617 3.688-1.617 6.938v12.867h-5.508v-36.469h5.508v9.258c0 1.484-.094 3.07-.281 4.758h.352c.75-1.25 1.789-2.219 3.117-2.906 1.344-.688 2.906-1.031 4.688-1.031 6.281 0 9.422 3.164 9.422 9.492v16.898zm27.536-13.008c0 4.234-1.086 7.539-3.258 9.914-2.172 2.375-5.195 3.563-9.07 3.563-2.422 0-4.563-.547-6.422-1.641-1.859-1.094-3.289-2.664-4.289-4.711-1-2.047-1.5-4.422-1.5-7.125 0-4.203 1.078-7.484 3.234-9.844 2.156-2.359 5.195-3.539 9.117-3.539 3.75 0 6.719 1.211 8.906 3.633 2.188 2.406 3.281 5.656 3.281 9.75zm-18.867 0c0 5.984 2.211 8.977 6.633 8.977 4.375 0 6.563-2.992 6.563-8.977 0-5.922-2.203-8.883-6.609-8.883-2.313 0-3.992.766-5.039 2.297-1.031 1.531-1.547 3.727-1.547 6.586zm44.904 13.008h-5.532v-15.938c0-2-.406-3.492-1.218-4.477-.797-.984-2.071-1.476-3.821-1.476-2.328 0-4.031.688-5.109 2.063-1.078 1.375-1.617 3.68-1.617 6.914v12.914h-5.508v-25.922h4.313l.773 3.399h.281c.781-1.234 1.891-2.188 3.328-2.859 1.438-.672 3.032-1.008 4.782-1.008 6.218 0 9.328 3.164 9.328 9.492v16.898zm15.864.469c-4.031 0-7.187-1.172-9.469-3.516-2.265-2.359-3.398-5.601-3.398-9.726 0-4.234 1.055-7.563 3.164-9.984 2.109-2.422 5.008-3.633 8.695-3.633 3.422 0 6.125 1.039 8.11 3.117 1.984 2.078 2.976 4.938 2.976 8.578v2.976h-17.273c.078 2.516.758 4.453 2.039 5.813 1.281 1.344 3.086 2.016 5.414 2.016 1.531 0 2.953-.141 4.265-.422 1.329-.297 2.75-.781 4.266-1.453v4.477c-1.344.641-2.703 1.094-4.078 1.359-1.375.266-2.945.398-4.711.398zm-1.008-22.688c-1.75 0-3.156.555-4.219 1.664-1.046 1.109-1.671 2.727-1.875 4.852h11.766c-.031-2.141-.547-3.758-1.547-4.852-1-1.109-2.375-1.664-4.125-1.664z" fill="#3F3F3F"/>
</svg>