<svg width="122" height="28" 
    xmlns="http://www.w3.org/2000/svg" fill="none">
    <path id='logo_iRemont' d="M33.723 9.512c0-1.164.648-1.746 1.945-1.746 1.297 0 1.945.582 1.945 1.746 0 .555-.164.988-.492 1.301-.32.305-.805.457-1.453.457-1.297 0-1.945-.586-1.945-1.758zm3.726 16.488h-3.574v-13.102h3.574v13.102zm5.516-9.07h1.195c1.117 0 1.953-.219 2.508-.656.555-.445.832-1.09.832-1.934 0-.852-.234-1.48-.703-1.887-.461-.406-1.188-.609-2.18-.609h-1.652v5.086zm8.203-2.719c0 1.844-.578 3.254-1.734 4.231-1.148.977-2.785 1.465-4.91 1.465h-1.559v6.094h-3.633v-17.133h5.473c2.078 0 3.656.449 4.734 1.348 1.086.891 1.629 2.223 1.629 3.996zm6.699.984c-.758 0-1.351.242-1.781.727-.43.476-.676 1.156-.738 2.039h5.016c-.016-.883-.246-1.563-.691-2.039-.445-.484-1.047-.727-1.805-.727zm.504 11.039c-2.109 0-3.758-.582-4.945-1.746-1.188-1.164-1.781-2.813-1.781-4.945 0-2.195.547-3.891 1.641-5.086 1.102-1.203 2.621-1.805 4.559-1.805 1.852 0 3.293.527 4.324 1.582 1.031 1.055 1.547 2.512 1.547 4.371v1.734h-8.449c.039 1.016.34 1.809.902 2.379.563.57 1.352.855 2.367.855.789 0 1.535-.082 2.238-.246.703-.164 1.438-.426 2.203-.785v2.766c-.625.313-1.293.543-2.004.691-.711.156-1.578.234-2.602.234zm23.082-.234h-3.34v-10.324l-.188.727c-.422 1.649-.801 2.895-1.137 3.738l-2.32 5.859h-2.543l-2.356-5.906c-.336-.859-.695-2.067-1.078-3.621l-.223-.797v10.324h-3.328v-13.102h4.922l2.25 5.59c.234.602.449 1.293.644 2.074.203.781.34 1.449.41 2.004.258-1.172.457-2.012.598-2.519.148-.516.308-.988.48-1.418.172-.43.949-2.34 2.332-5.731h4.875v13.102zm4.929-6.574c0 1.297.211 2.277.633 2.941.43.664 1.125.996 2.086.996.953 0 1.637-.328 2.051-.984.422-.664.633-1.648.633-2.953 0-1.297-.211-2.269-.633-2.918-.422-.648-1.113-.973-2.074-.973-.953 0-1.641.324-2.063.973-.422.641-.633 1.613-.633 2.918zm9.059 0c0 2.133-.563 3.801-1.688 5.004-1.125 1.203-2.691 1.805-4.699 1.805-1.258 0-2.367-.274-3.328-.82-.961-.555-1.699-1.348-2.215-2.379-.516-1.031-.773-2.234-.773-3.609 0-2.141.559-3.805 1.676-4.992 1.117-1.188 2.688-1.781 4.711-1.781 1.258 0 2.367.274 3.328.82.961.547 1.699 1.332 2.215 2.355.516 1.024.773 2.223.773 3.598zm4.847-6.527v5.039h4.992v-5.039h3.574v13.102h-3.574v-5.402h-4.992v5.402h-3.574v-13.102h3.574zm21.476 0v2.684h-4.289v10.418h-3.574v-10.418h-4.301v-2.684h12.164zm-103.966-6.689c-2.174-.39-3.652 1.121-5.565 1.121h-.609c-1.826 0-3.391-1.511-5.565-1.121-4.18.75-5.457 3.152-6 7.331-.493 3.795 2.174 10.608 5.739 13.196 1.901 1.38 3.565-.604 5.826-.604h.609c2.261 0 3.925 1.984 5.826.604 3.565-2.587 6.232-9.401 5.739-13.196-.543-4.179-1.82-6.581-6-7.331zM11.401 6.542c2.948-.14 5.295-2.555 5.295-5.513 0-.352-.033-.695-.097-1.029-2.948.14-5.295 2.555-5.295 5.513 0 .351.033.695.097 1.029z" fill="#BDBDBD"/>
</svg>