<svg width="32" height="32" viewBox="0 0 32 32" fill="none" xmlns="http://www.w3.org/2000/svg">
<g clip-path="url(#clip0)">
<path d="M22.6262 7.97262C20.1417 7.52708 18.4523 9.25402 16.2659 9.25402L15.5703 9.25402C13.4833 9.25402 11.6945 7.52708 9.21002 7.97262C4.43237 8.82941 2.97347 11.5749 2.35288 16.351C1.78933 20.688 4.83735 28.4749 8.91189 31.432C11.085 33.0091 12.9864 30.742 15.5703 30.742H16.2659C18.8498 30.742 20.7512 33.0091 22.9243 31.432C26.9988 28.4749 30.0469 20.688 29.4833 16.351C28.8627 11.5749 27.4038 8.82941 22.6262 7.97262Z" fill="#3F3F3F"/>
<path fill-rule="evenodd" clip-rule="evenodd" d="M15.3151 8.35236C18.6842 8.1925 21.3663 5.43256 21.3663 2.05128C21.3663 1.64956 21.3284 1.2566 21.2561 0.875732C17.8869 1.0356 15.2048 3.79554 15.2048 7.17681C15.2048 7.57854 15.2427 7.9715 15.3151 8.35236Z" fill="#3F3F3F"/>
</g>
<defs>
<clipPath id="clip0">
<rect width="27.4286" height="32" fill="white" transform="translate(2.28564)"/>
</clipPath>
</defs>
</svg>
